<svg width="117" height="28" viewBox="0 0 117 28" fill="none" xmlns="http://www.w3.org/2000/svg">
<path fill-rule="evenodd" clip-rule="evenodd" d="M22.5 16V11C22.5 9.61929 21.3807 8.5 20 8.5C18.6193 8.5 17.5 9.61929 17.5 11V16C17.5 17.3807 18.6193 18.5 20 18.5C21.3807 18.5 22.5 17.3807 22.5 16ZM20 4.5C16.4101 4.5 13.5 7.41015 13.5 11V16C13.5 19.5899 16.4101 22.5 20 22.5C23.5899 22.5 26.5 19.5899 26.5 16V11C26.5 7.41015 23.5899 4.5 20 4.5ZM1 5H5H7.5C10.5376 5 13 7.46243 13 10.5C13 13.5376 10.5376 16 7.5 16H5V22H1V16V5ZM7.5 12H5V9H7.5C8.32843 9 9 9.67157 9 10.5C9 11.3284 8.32843 12 7.5 12ZM57.5 16V22H61.5V16H63.375L66 22H70L66.989 15.1177C68.5003 14.1375 69.5 12.4355 69.5 10.5C69.5 7.46243 67.0376 5 64 5H61.5H57.5V16ZM64 12H61.5V9H64C64.8284 9 65.5 9.67157 65.5 10.5C65.5 11.3284 64.8284 12 64 12ZM36.5 11V16C36.5 17.3807 35.3807 18.5 34 18.5C32.6193 18.5 31.5 17.3807 31.5 16V11C31.5 9.61929 32.6193 8.5 34 8.5C35.3807 8.5 36.5 9.61929 36.5 11ZM27.5 11C27.5 7.41015 30.4101 4.5 34 4.5C37.5899 4.5 40.5 7.41015 40.5 11V16C40.5 19.5899 37.5899 22.5 34 22.5C30.4101 22.5 27.5 19.5899 27.5 16V11ZM45.5 5H41.5V18V22H45.5H50.5V18H45.5V5ZM70 5H74H78H82V9H78V22H74V9H70V5ZM51.5 5H55.5V22H51.5V5ZM87 5H83V22H87V5ZM89 22V5H93L97 13.5V5H101V22H97L93 13.5V22H89ZM102.5 10.875C102.5 7.35418 105.354 4.5 108.875 4.5H109.25C112.564 4.5 115.25 7.18629 115.25 10.5H111.25C111.25 9.39543 110.355 8.5 109.25 8.5H108.875C107.563 8.5 106.5 9.56332 106.5 10.875V16C106.5 17.3807 107.619 18.5 109 18.5H110C110.828 18.5 111.5 17.8284 111.5 17V16H109.5V12.5H115.5V14.5V16V17C115.5 20.0376 113.038 22.5 110 22.5H109C105.41 22.5 102.5 19.5899 102.5 16V10.875Z" fill="url(#paint0_linear_7257_67610)"/>
<defs>
<linearGradient id="paint0_linear_7257_67610" x1="1" y1="13.5" x2="115.5" y2="13.5" gradientUnits="userSpaceOnUse">
<stop stop-color="#7D2DFF"/>
<stop offset="0.473958" stop-color="#E744BE"/>
<stop offset="0.885417" stop-color="#FF5D29"/>
</linearGradient>
</defs>
</svg>
